<svg width="120" height="120" viewBox="0 0 120 120" fill="none" xmlns="http://www.w3.org/2000/svg">
  <defs>
    <linearGradient id="bg" x1="8" y1="8" x2="112" y2="112" gradientUnits="userSpaceOnUse">
      <stop stop-color="#0F172A"/>
      <stop offset="1" stop-color="#111827"/>
    </linearGradient>
    <linearGradient id="glow" x1="24" y1="28" x2="95" y2="95" gradientUnits="userSpaceOnUse">
      <stop stop-color="#22D3EE"/>
      <stop offset="1" stop-color="#3B82F6"/>
    </linearGradient>
    <linearGradient id="rocket" x1="47" y1="40" x2="75" y2="74" gradientUnits="userSpaceOnUse">
      <stop stop-color="#E2E8F0"/>
      <stop offset="1" stop-color="#94A3B8"/>
    </linearGradient>
  </defs>

  <rect x="8" y="8" width="104" height="104" rx="22" fill="url(#bg)"/>
  <rect x="8.5" y="8.5" width="103" height="103" rx="21.5" stroke="url(#glow)" stroke-opacity="0.35"/>

  <path d="M21 80C32.5 67.5 43 63 56 60C71.5 56.5 83.5 48.5 97 31" stroke="url(#glow)" stroke-width="3.4" stroke-linecap="round"/>
  <circle cx="23" cy="79" r="4" fill="#22D3EE"/>
  <circle cx="55" cy="60" r="3.5" fill="#38BDF8"/>
  <circle cx="79" cy="51" r="3.2" fill="#60A5FA"/>
  <circle cx="97" cy="31" r="4" fill="#A78BFA"/>

  <path d="M63.5 39.5C57.7 44.2 53.4 51.1 52.7 59.7L60.3 67.3C68.9 66.6 75.8 62.3 80.5 56.5C84.2 51.9 86.2 46.3 86.5 40.5C80.7 40.8 75.1 42.8 70.5 46.5L63.5 39.5Z" fill="url(#rocket)"/>
  <path d="M60.2 67.3L54.3 73.2C53.7 73.8 52.8 74.1 51.9 74.1H46.8L46.9 68.9C46.9 68 47.2 67.1 47.8 66.5L53.7 60.6L60.2 67.3Z" fill="#22D3EE" fill-opacity="0.85"/>
  <path d="M70.5 46.5L63.5 39.5L67.3 35.7C68.2 34.8 69.6 34.8 70.5 35.7L74.3 39.5C75.2 40.4 75.2 41.8 74.3 42.7L70.5 46.5Z" fill="#38BDF8"/>
  <circle cx="71.2" cy="48.8" r="3.2" fill="#0F172A"/>

  <rect x="25" y="24" width="23" height="15" rx="4" fill="#1E293B" stroke="#334155"/>
  <path d="M30 33L34 29L37 32L41 27" stroke="#22D3EE" stroke-width="1.8" stroke-linecap="round" stroke-linejoin="round"/>
  <rect x="72" y="80" width="24" height="14" rx="4" fill="#1E293B" stroke="#334155"/>
  <path d="M77 90H91" stroke="#60A5FA" stroke-width="1.8" stroke-linecap="round"/>
</svg>
